<svg class="svg-icon" style="width: 1em; height: 1em;vertical-align: middle;fill: currentColor;overflow: hidden;" viewBox="0 0 1024 1024" version="1.1" xmlns="http://www.w3.org/2000/svg"><path d="M641.066029 583.782883c-12.095479-6.64535-25.074072-11.990079-38.600133-16.320711 0.12996-0.088004 0.12996-1.090844 0.305969-1.00284C621.010251 572.269665 634.148479 579.906599 641.066029 583.782883zM646.042367 400.354224c0-86.367043-60.065004-156.333558-134.042879-156.333558-74.023924 0-134.042879 69.966515-134.042879 156.333558 0 86.323041 60.018955 156.288532 134.042879 156.288532C585.977363 556.642756 646.042367 486.677265 646.042367 400.354224zM958.70846 244.020666l0 535.9996c0 98.625228-80.000032 178.667216-178.711218 178.667216L243.998665 958.687482c-98.711186 0-178.709171-80.041988-178.709171-178.667216L65.289494 244.020666c0-98.711186 79.997985-178.709171 178.709171-178.709171l535.998577 0C878.708428 65.311495 958.70846 145.30948 958.70846 244.020666zM869.286848 288.643979c0-73.979922-59.932997-134.042879-133.954875-134.042879L288.623002 154.6011c-73.979922 0-133.912919 60.062957-133.912919 134.042879l0 446.709995c0 73.979922 59.932997 133.956921 133.912919 133.956921 191.970196 1.74269 84.708264 0.173962 160.868851 0L288.623002 869.310895 288.623002 735.353974c0-98.711186 88.939635-178.711218 198.555172-178.711218l24.821315 0 24.819269 0c23.162536 0 44.927235 4.231371 65.647139 10.818393-2.660596 2.356674 1.090844 33.848922-2.574638 33.848922-37.338397 0-87.892793 0-87.892793 0l0 178.709171 89.289606 0 0 89.291652-26.478048 0c79.388095 0.173962-3.533476 1.74269 160.520927 0 74.021877 0 133.954875-59.977 133.954875-133.956921L869.285824 288.643979zM646.042367 601.310072l0 44.665269L556.620755 645.975341l0 89.37761 89.421612 0 0 89.289606 89.289606 0 0-44.623313c0 0 1.962701-19.541055 0.305969-44.665269l88.983637 0 0-89.37761-89.289606 0 0-89.333608-89.289606 0 0 29.661553c-0.785899-0.479931-1.744737-0.697895-2.530636-1.176802 0.261966 0.173962 0.959861 0.479931 1.264806 0.697895C648.093073 587.658144 643.685693 601.223091 646.042367 601.310072zM641.066029 583.782883c0.924045 0.518816 1.746784 0.975211 2.446725 1.344624C642.704342 584.668043 641.881604 584.231091 641.066029 583.782883z"  /></svg>